 <svg  version="1.0" xmlns="http://www.w3.org/2000/svg"  width="170.000000pt" height="83.000000pt" viewBox="0 0 170.000000 83.000000"  preserveAspectRatio="xMidYMid meet">  <g transform="translate(0.000000,83.000000) scale(0.100000,-0.100000)" fill="#5249ff" stroke="none"> <path d="M453 653 c-15 -8 -37 -23 -49 -34 -13 -12 -35 -19 -61 -19 -134 0 -263 -113 -233 -205 6 -19 23 -44 38 -55 23 -19 27 -19 41 -5 15 15 14 18 -11 36 -33 25 -35 46 -7 100 16 31 32 46 73 65 29 13 67 27 86 30 37 8 37 11 -11 -61 -14 -22 -43 -78 -64 -125 -42 -96 -79 -142 -110 -138 -17 3 -20 10 -20 47 0 49 -19 66 -42 35 -20 -27 -16 -80 8 -103 58 -54 135 -15 186 97 24 52 25 52 70 52 l45 0 -8 -42 c-4 -24 -7 -47 -7 -53 -1 -38 6 -56 23 -65 44 -23 115 52 140 147 6 27 14 54 16 61 2 8 13 10 31 6 16 -4 29 -8 31 -9 1 -1 -7 -22 -18 -46 -20 -44 -26 -114 -12 -135 18 -27 51 -35 81 -20 16 9 31 21 33 28 4 10 8 10 21 -1 12 -9 30 -12 57 -7 33 5 38 4 34 -9 -4 -8 -18 -15 -33 -15 -82 0 -142 -47 -110 -86 34 -41 91 -33 135 19 15 18 40 38 56 44 17 7 43 27 58 43 28 30 29 31 40 10 19 -35 57 -44 95 -21 32 19 33 19 52 -1 17 -17 23 -18 41 -7 17 10 23 10 37 -1 20 -17 27 -8 48 60 31 102 111 200 139 172 8 -8 6 -33 -6 -90 -26 -121 -4 -172 59 -138 34 19 91 108 80 126 -13 22 -35 8 -53 -34 -36 -80 -71 -73 -48 10 23 79 27 120 16 148 -13 36 -66 36 -110 -1 l-32 -27 7 32 c5 24 3 32 -7 32 -24 0 -35 -15 -47 -65 -7 -27 -19 -66 -28 -85 -8 -19 -21 -50 -29 -67 -7 -18 -18 -33 -24 -33 -23 0 -21 35 9 128 17 54 31 103 31 110 0 17 -26 15 -45 -4 -12 -13 -18 -14 -30 -4 -21 18 -83 6 -113 -22 -25 -24 -72 -112 -72 -137 0 -22 -51 -91 -66 -91 -16 0 -18 12 -5 26 17 17 81 228 72 237 -17 17 -49 -12 -56 -50 -15 -84 -70 -173 -107 -173 -28 0 -27 30 4 143 11 42 18 80 15 83 -3 3 -14 3 -25 -1 -16 -4 -25 -24 -38 -79 -21 -91 -53 -160 -76 -164 -26 -5 -24 51 4 123 l22 58 -23 18 c-13 11 -36 19 -51 19 -24 0 -29 5 -32 27 -4 33 -20 39 -43 17 -13 -13 -16 -28 -12 -58 4 -28 -1 -56 -14 -91 -31 -77 -51 -115 -61 -115 -20 0 -19 35 5 117 40 139 43 177 18 202 -12 12 -21 25 -21 31 0 13 45 24 70 17 25 -6 46 16 28 30 -24 19 -57 21 -85 6z m-30 -156 c-3 -76 -12 -90 -62 -93 -23 -1 -41 0 -41 3 0 19 84 153 93 150 8 -3 11 -25 10 -60z m675 -59 c18 -18 15 -63 -9 -117 -38 -90 -99 -92 -99 -4 0 86 67 162 108 121z m-318 -262 c0 -12 -34 -36 -51 -36 -24 0 -25 27 -1 33 24 6 52 8 52 3z"/> </g> </svg> 