<?xml version="1.0" standalone="no"?>
<!DOCTYPE svg PUBLIC "-//W3C//DTD SVG 20010904//EN"
 "http://www.w3.org/TR/2001/REC-SVG-20010904/DTD/svg10.dtd">
<svg version="1.0" xmlns="http://www.w3.org/2000/svg"
 width="170.000000pt" height="83.000000pt" viewBox="0 0 170.000000 83.000000"
 preserveAspectRatio="xMidYMid meet">
<metadata>
Created by potrace 1.10, written by Peter Selinger 2001-2011
</metadata>
<g transform="translate(0.000000,83.000000) scale(0.100000,-0.100000)"
fill="#000000" stroke="none">
<path d="M445 644 c-16 -8 -37 -21 -45 -28 -8 -8 -42 -16 -75 -20 -119 -13
-204 -79 -212 -163 -4 -39 -1 -53 17 -75 25 -32 60 -38 60 -9 0 10 -9 21 -20
24 -27 7 -27 61 -1 104 23 37 90 79 144 88 46 9 46 2 6 -66 -17 -29 -38 -71
-47 -93 -8 -23 -32 -68 -51 -101 -28 -46 -42 -61 -63 -63 -34 -4 -54 27 -37
59 9 17 8 23 -2 30 -20 13 -33 6 -43 -24 -21 -58 33 -117 92 -102 34 8 84 62
112 120 22 46 23 46 69 43 35 -2 45 -7 42 -18 -2 -8 -6 -38 -8 -65 -4 -38 -1
-54 11 -64 42 -35 105 27 143 138 22 67 40 83 72 62 12 -8 11 -17 -7 -59 -26
-60 -28 -99 -6 -130 19 -28 67 -29 94 -2 22 22 40 26 40 9 0 -8 14 -10 45 -6
25 4 45 5 45 3 0 -17 -38 -36 -71 -36 -56 0 -79 -15 -79 -51 0 -61 78 -64 133
-5 18 19 46 41 64 50 17 8 40 27 51 41 22 28 42 33 42 10 0 -34 70 -46 109
-19 21 15 24 15 32 1 7 -11 23 -15 60 -14 l51 2 18 57 c31 100 100 188 137
174 13 -5 14 -15 7 -59 -23 -144 -5 -199 54 -167 47 27 91 130 55 130 -5 0
-19 -22 -32 -50 -23 -48 -43 -62 -56 -40 -3 5 1 37 9 71 20 77 20 133 1 149
-20 17 -73 5 -103 -23 l-25 -22 7 28 c6 25 4 28 -15 25 -18 -2 -26 -17 -46
-85 -28 -98 -53 -147 -78 -151 -16 -4 -17 1 -11 42 4 25 18 78 32 118 13 39
24 73 24 75 0 11 -42 0 -46 -12 -5 -12 -9 -12 -30 1 -15 11 -33 14 -54 9 -52
-11 -85 -48 -115 -130 -15 -41 -36 -86 -47 -100 -23 -29 -55 -35 -42 -7 4 9
24 67 44 127 34 104 35 110 17 113 -25 5 -26 3 -44 -64 -18 -69 -53 -134 -84
-153 -20 -12 -24 -11 -36 5 -15 21 -10 59 18 148 10 33 19 61 19 63 0 1 -11 3
-24 3 -21 0 -25 -8 -41 -77 -22 -100 -51 -163 -75 -163 -28 0 -31 25 -10 93
11 34 20 69 20 78 0 24 -22 39 -61 42 -30 3 -34 6 -31 30 2 21 -1 27 -17 27
-28 0 -35 -17 -36 -80 -1 -65 -54 -190 -79 -190 -22 0 -20 30 9 137 31 112 34
157 12 181 -32 35 -16 52 49 52 22 0 34 5 34 14 0 28 -50 34 -95 10z m-21
-139 c0 -28 -3 -62 -7 -77 -7 -25 -12 -28 -53 -28 -42 0 -45 2 -39 23 4 12 20
44 36 70 16 27 29 53 29 58 0 6 8 9 18 7 13 -3 17 -14 16 -53z m685 -79 c21
-53 -35 -176 -79 -176 -28 0 -43 27 -42 76 1 45 30 107 55 118 31 12 58 5 66
-18z m-329 -254 c0 -15 -24 -32 -47 -32 -27 0 -31 26 -5 33 29 8 52 7 52 -1z"/>
</g>
</svg>
