<?xml version="1.0" encoding="UTF-8"?>
<!DOCTYPE svg PUBLIC "-//W3C//DTD SVG 1.1//EN" "http://www.w3.org/Graphics/SVG/1.1/DTD/svg11.dtd">
<svg xmlns="http://www.w3.org/2000/svg" version="1.1" width="512px" height="512px" style="shape-rendering:geometricPrecision; text-rendering:geometricPrecision; image-rendering:optimizeQuality; fill-rule:evenodd; clip-rule:evenodd" xmlns:xlink="http://www.w3.org/1999/xlink">
<g><path style="opacity:1" fill="#0e6f67" d="M 459.5,51.5 C 459.427,53.0269 460.094,54.0269 461.5,54.5C 463.833,56.1667 465.833,58.1667 467.5,60.5C 467.427,62.0269 468.094,63.0269 469.5,63.5C 491.227,91.3889 500.06,123.056 496,158.5C 492.667,183.152 483.334,205.152 468,224.5C 432.167,260.333 396.333,296.167 360.5,332C 320.582,362.374 276.916,369.04 229.5,352C 210.818,344.072 194.651,332.572 181,317.5C 176.326,311.481 172.159,305.147 168.5,298.5C 182.833,283.833 197.167,269.167 211.5,254.5C 212.574,253.115 213.907,251.949 215.5,251C 216.167,250.333 216.833,250.333 217.5,251C 227.599,279.419 247.766,294.586 278,296.5C 293.99,295.784 308.156,290.451 320.5,280.5C 352.083,250.419 383.249,219.752 414,188.5C 414.464,187.906 414.631,187.239 414.5,186.5C 436.57,159.369 437.737,131.369 418,102.5C 397.284,79.7794 372.451,73.6127 343.5,84C 338.334,86.7484 333.334,89.7484 328.5,93C 316.26,105.742 303.594,117.909 290.5,129.5C 266.892,121.007 242.559,117.674 217.5,119.5C 215.265,119.795 213.265,119.461 211.5,118.5C 234.833,94.5 258.5,70.8333 282.5,47.5C 285.089,46.5806 287.089,44.914 288.5,42.5C 318.733,18.5236 353.067,9.69031 391.5,16C 418.061,20.7769 440.728,32.6102 459.5,51.5 Z"/></g>
<g><path style="opacity:0.984" fill="#0b4843" d="M 288.5,42.5 C 287.089,44.914 285.089,46.5806 282.5,47.5C 283.911,45.086 285.911,43.4194 288.5,42.5 Z"/></g>
<g><path style="opacity:0.898" fill="#0a3c38" d="M 459.5,51.5 C 460.906,51.9731 461.573,52.9731 461.5,54.5C 460.094,54.0269 459.427,53.0269 459.5,51.5 Z"/></g>
<g><path style="opacity:0.949" fill="#0d3a37" d="M 467.5,60.5 C 468.906,60.9731 469.573,61.9731 469.5,63.5C 468.094,63.0269 467.427,62.0269 467.5,60.5 Z"/></g>
<g><path style="opacity:0.949" fill="#0b4944" d="M 211.5,118.5 C 213.265,119.461 215.265,119.795 217.5,119.5C 215.034,120.634 212.367,120.801 209.5,120C 210.044,119.283 210.711,118.783 211.5,118.5 Z"/></g>
<g><path style="opacity:0.991" fill="#010101" d="M 225.5,149.5 C 276.576,148.834 315.743,169.834 343,212.5C 343.667,213.167 343.667,213.833 343,214.5C 329.167,228.333 315.333,242.167 301.5,256C 299.167,257.5 296.833,259 294.5,260.5C 278.272,222.053 249.939,208.22 209.5,219C 205.007,221.079 200.674,223.412 196.5,226C 160.333,260.833 124.833,296.333 90,332.5C 71.8547,364.856 76.3547,393.689 103.5,419C 128.07,435.981 153.07,436.648 178.5,421C 192.138,408.363 205.471,395.363 218.5,382C 232.211,385.925 246.211,388.925 260.5,391C 274.186,391.504 287.853,391.504 301.5,391C 276.167,416.333 250.833,441.667 225.5,467C 185.758,497.822 142.092,504.822 94.5,488C 43.5559,464.668 16.5559,424.835 13.5,368.5C 14.3012,337.251 24.4678,309.584 44,285.5C 79.1667,250.333 114.333,215.167 149.5,180C 171.678,161.887 197.012,151.72 225.5,149.5 Z"/></g>
<g><path style="opacity:0.984" fill="#0b5650" d="M 414.5,186.5 C 414.631,187.239 414.464,187.906 414,188.5C 383.249,219.752 352.083,250.419 320.5,280.5C 351.5,248.833 382.833,217.5 414.5,186.5 Z"/></g>
<g><path style="opacity:0.898" fill="#09433e" d="M 211.5,254.5 C 197.167,269.167 182.833,283.833 168.5,298.5C 167.475,298.103 167.308,297.437 168,296.5C 182.086,281.912 196.586,267.912 211.5,254.5 Z"/></g>
</svg>
