<?xml version="1.0" standalone="no"?>
<!DOCTYPE svg PUBLIC "-//W3C//DTD SVG 20010904//EN"
 "http://www.w3.org/TR/2001/REC-SVG-20010904/DTD/svg10.dtd">
<svg version="1.0" xmlns="http://www.w3.org/2000/svg"
 width="174.000000pt" height="93.000000pt" viewBox="0 0 174.000000 93.000000"
 preserveAspectRatio="xMidYMid meet">
<metadata>
Created by potrace 1.16, written by Peter Selinger 2001-2019
</metadata>
<g transform="translate(0.000000,93.000000) scale(0.100000,-0.100000)"
fill="#000000" stroke="none">
<path d="M0 465 l0 -465 870 0 870 0 0 465 0 465 -870 0 -870 0 0 -465z m470
38 c47 -78 88 -142 93 -143 4 0 7 66 7 146 l0 146 175 -4 c105 -2 178 -7 185
-14 7 -7 7 -19 0 -40 l-10 -29 -140 3 -140 4 -2 -174 -3 -173 -41 -3 -42 -3
-93 160 c-52 88 -97 161 -101 161 -8 0 -138 -224 -138 -239 0 -7 23 -11 65
-11 36 0 65 -2 65 -4 0 -2 3 -11 6 -19 3 -8 -2 -22 -11 -31 -13 -13 -39 -16
-136 -16 -65 0 -119 4 -119 9 0 9 223 383 243 409 26 33 52 7 137 -135z m578
135 c5 -7 38 -77 72 -156 35 -78 66 -140 69 -137 3 4 35 72 71 153 91 205 108
205 161 2 l33 -130 39 0 c68 0 96 -29 61 -64 -11 -11 -35 -16 -79 -16 -76 0
-73 -4 -105 128 -12 51 -26 90 -31 85 -4 -4 -34 -69 -67 -143 -56 -127 -61
-135 -88 -135 -25 0 -31 7 -69 95 -23 52 -52 118 -65 145 l-22 50 -13 -45
c-28 -106 -68 -129 -216 -130 -102 0 -124 9 -117 47 3 16 17 19 110 23 130 6
137 11 168 125 12 44 26 88 31 98 11 20 42 23 57 5z"/>
</g>
</svg>
