<?xml version="1.0" standalone="no"?>
<!DOCTYPE svg PUBLIC "-//W3C//DTD SVG 20010904//EN"
 "http://www.w3.org/TR/2001/REC-SVG-20010904/DTD/svg10.dtd">
<svg version="1.0" xmlns="http://www.w3.org/2000/svg"
 width="254.000000pt" height="97.000000pt" viewBox="0 0 254.000000 97.000000"
 preserveAspectRatio="xMidYMid meet">
<metadata>
Created by potrace 1.10, written by Peter Selinger 2001-2011
</metadata>
<g transform="translate(0.000000,97.000000) scale(0.100000,-0.100000)"
fill="#000000" stroke="none">
<path d="M748 930 c-24 -9 -61 -28 -83 -43 -21 -15 -64 -31 -94 -37 -188 -37
-241 -57 -311 -118 -57 -48 -90 -120 -90 -194 0 -53 3 -62 36 -98 38 -42 77
-53 88 -24 8 20 -10 54 -29 54 -20 0 -35 32 -35 72 1 76 68 161 168 212 55 28
149 48 158 34 7 -11 -165 -361 -223 -451 -46 -72 -76 -93 -117 -83 -39 10 -50
40 -35 93 13 48 5 63 -34 63 -20 0 -47 -54 -47 -95 0 -91 106 -153 189 -110
41 21 112 103 149 173 17 32 38 65 46 71 9 7 39 11 78 9 l63 -3 -1 -40 c-1
-22 -3 -71 -5 -109 -2 -63 0 -71 21 -88 68 -55 165 44 241 246 26 71 58 107
88 99 43 -11 45 -27 12 -118 -32 -90 -39 -151 -20 -188 34 -67 105 -76 169
-22 41 34 42 35 65 17 19 -15 33 -17 81 -12 33 4 62 5 67 3 29 -17 -72 -62
-139 -63 -85 0 -127 -51 -98 -118 15 -36 41 -46 98 -38 31 5 57 20 105 62 35
30 86 70 115 88 28 18 67 50 85 70 43 44 66 46 74 7 11 -54 114 -66 182 -21
29 19 30 19 50 0 20 -19 63 -26 142 -22 l41 2 27 82 c53 162 151 298 214 298
16 0 31 -5 33 -12 2 -6 -2 -61 -10 -122 -15 -123 -11 -196 14 -233 13 -21 21
-24 47 -19 61 12 147 129 147 199 0 48 -29 28 -74 -51 -47 -83 -67 -100 -87
-76 -10 13 -9 35 9 127 37 189 26 257 -41 257 -40 0 -101 -28 -145 -64 l-32
-28 10 27 c17 45 13 65 -15 65 -30 0 -43 -24 -80 -145 -50 -164 -95 -245 -137
-245 -11 0 -18 7 -18 18 1 35 29 150 64 258 20 61 36 114 36 117 0 16 -41 5
-67 -17 l-29 -25 -30 20 c-54 36 -143 12 -201 -54 -16 -18 -42 -65 -59 -103
-60 -142 -109 -229 -136 -244 -15 -8 -30 -12 -33 -8 -4 3 20 87 53 185 33 98
62 192 64 208 3 27 0 30 -27 30 -29 0 -31 -2 -66 -110 -42 -130 -58 -163 -106
-216 -44 -48 -75 -52 -93 -9 -17 40 -8 103 34 233 l33 105 -24 5 c-42 8 -60
-21 -92 -145 -47 -184 -92 -268 -135 -252 -29 11 -28 49 4 168 17 66 28 126
25 137 -8 24 -61 49 -103 49 -37 0 -55 21 -47 53 13 48 -58 58 -76 10 -5 -13
-9 -45 -9 -71 0 -65 -24 -159 -60 -239 -38 -83 -67 -118 -87 -102 -19 17 -17
38 27 219 49 201 51 258 13 313 l-27 39 23 19 c16 13 39 19 71 19 57 0 80 7
80 25 0 37 -67 50 -132 25z m-67 -177 c12 -31 4 -163 -12 -205 -12 -30 -57
-43 -115 -32 -33 6 -36 9 -30 35 3 15 28 68 56 116 27 49 50 94 50 101 0 24
40 12 51 -15z m226 -167 c-11 -27 -27 -17 -27 16 0 30 1 31 16 16 9 -9 14 -24
11 -32z m911 -14 c24 -30 11 -130 -27 -206 -37 -75 -78 -110 -115 -97 -86 32
-49 280 49 322 28 12 77 2 93 -19z m278 -17 c6 -15 -34 -90 -44 -81 -7 8 19
96 30 96 5 0 11 -7 14 -15z m-506 -221 c0 -26 -17 -33 -26 -9 -8 20 3 48 16
40 5 -3 10 -17 10 -31z m-315 -195 c10 -15 -23 -47 -57 -54 -38 -9 -68 15 -49
39 19 23 95 34 106 15z"/>
</g>
</svg>
